<svg xmlns="http://www.w3.org/2000/svg" viewBox="0 0 28 36" width="84" height="108">
  <!-- Pixel art farmer SIDE PROFILE - facing left, with pitchfork -->

  <!-- === HAT (thicker) === -->
  <rect x="1" y="2" width="16" height="1" fill="#D4A857"/>
  <rect x="2" y="3" width="14" height="1" fill="#C4983E"/>
  <rect x="5" y="0" width="8" height="1" fill="#C4983E"/>
  <rect x="4" y="1" width="10" height="1" fill="#D4A857"/>
  <rect x="4" y="2" width="10" height="1" fill="#D4A857"/>
  <rect x="4" y="3" width="10" height="1" fill="#8B6914"/>

  <!-- === HAIR === -->
  <rect x="13" y="4" width="2" height="3" fill="#2C1810"/>
  <rect x="4" y="4" width="1" height="2" fill="#2C1810"/>

  <!-- === HEAD === -->
  <rect x="5" y="4" width="8" height="1" fill="#E8B88A"/>
  <rect x="4" y="5" width="9" height="1" fill="#E8B88A"/>
  <rect x="3" y="6" width="10" height="1" fill="#E8B88A"/>
  <rect x="4" y="7" width="9" height="1" fill="#E8B88A"/>
  <rect x="5" y="8" width="7" height="1" fill="#E8B88A"/>
  <!-- Eye -->
  <rect x="6" y="5" width="2" height="1" fill="#1a1a1a"/>
  <!-- Nose -->
  <rect x="3" y="6" width="1" height="1" fill="#D4A070"/>
  <!-- Mouth -->
  <rect x="4" y="7" width="1" height="1" fill="#C4946A"/>

  <!-- === STRAW === -->
  <rect x="0" y="7" width="4" height="1" fill="#D4A857"/>

  <!-- === NECK === -->
  <rect x="8" y="9" width="4" height="1" fill="#E8B88A"/>

  <!-- === SHIRT === -->
  <rect x="7" y="10" width="6" height="1" fill="#E8C840"/>
  <rect x="7" y="11" width="6" height="1" fill="#D4B030"/>

  <!-- === ARM (holding pitchfork handle) === -->
  <rect x="5" y="10" width="2" height="1" fill="#E8C840"/>
  <rect x="4" y="11" width="2" height="1" fill="#E8C840"/>
  <rect x="3" y="12" width="2" height="1" fill="#E8B88A"/>

  <!-- === PITCHFORK === -->
  <!-- Handle -->
  <rect x="3" y="13" width="1" height="1" fill="#8B4513"/>
  <rect x="2" y="14" width="1" height="1" fill="#8B4513"/>
  <rect x="2" y="15" width="1" height="1" fill="#6B3410"/>
  <rect x="1" y="16" width="1" height="1" fill="#6B3410"/>
  <rect x="1" y="17" width="1" height="1" fill="#8B4513"/>
  <rect x="0" y="18" width="1" height="1" fill="#8B4513"/>
  <!-- Prongs (three tines) -->
  <rect x="0" y="19" width="1" height="1" fill="#888"/>
  <rect x="0" y="20" width="1" height="1" fill="#999"/>
  <rect x="0" y="21" width="1" height="1" fill="#888"/>
  <rect x="2" y="19" width="1" height="1" fill="#888"/>
  <rect x="2" y="20" width="1" height="1" fill="#999"/>
  <rect x="2" y="21" width="1" height="1" fill="#888"/>
  <rect x="4" y="19" width="1" height="1" fill="#888"/>
  <rect x="4" y="20" width="1" height="1" fill="#999"/>
  <rect x="4" y="21" width="1" height="1" fill="#888"/>
  <!-- Crossbar connecting prongs -->
  <rect x="0" y="19" width="5" height="1" fill="#777"/>

  <!-- === OVERALLS === -->
  <rect x="7" y="12" width="6" height="1" fill="#4466AA"/>
  <rect x="7" y="13" width="6" height="1" fill="#3355AA"/>
  <rect x="7" y="14" width="6" height="1" fill="#4466AA"/>
  <rect x="7" y="15" width="6" height="1" fill="#3355AA"/>
  <!-- Strap -->
  <rect x="8" y="11" width="1" height="1" fill="#4466AA"/>
  <!-- Pocket -->
  <rect x="8" y="13" width="2" height="1" fill="#2244AA"/>

  <!-- === LEGS === -->
  <g id="leg-right" class="leg-right">
    <rect x="9" y="16" width="4" height="1" fill="#3355AA"/>
    <rect x="9" y="17" width="4" height="1" fill="#4466AA"/>
    <rect x="9" y="18" width="4" height="1" fill="#3355AA"/>
    <rect x="9" y="19" width="4" height="1" fill="#3355AA"/>
    <rect x="8" y="20" width="5" height="1" fill="#555"/>
    <rect x="7" y="21" width="6" height="1" fill="#444"/>
  </g>

  <g id="leg-left" class="leg-left">
    <rect x="7" y="16" width="4" height="1" fill="#4466AA"/>
    <rect x="7" y="17" width="4" height="1" fill="#3355AA"/>
    <rect x="7" y="18" width="4" height="1" fill="#4466AA"/>
    <rect x="7" y="19" width="4" height="1" fill="#3355AA"/>
    <rect x="6" y="20" width="5" height="1" fill="#555"/>
    <rect x="5" y="21" width="6" height="1" fill="#444"/>
  </g>
</svg>
